<svg xmlns="http://www.w3.org/2000/svg" width="1141" height="662" viewBox="0 0 1141 662"><path fill="#DDD7E3" fill-rule="evenodd" d="M1919.43319,1559 C1931.6989,1604.75777 1871.94843,1624.65819 1740.18179,1618.70127 C1542.53184,1609.76589 1537.84388,1530.39076 1388.98217,1720.8235 C1240.12046,1911.25624 1172.07687,1787.16231 982.83106,1821.10807 C793.585252,1855.05384 907.55133,1913.46498 862.054636,1981.89782 C816.557943,2050.33066 763.657328,2057.50666 783.160874,2121.43754 C802.66442,2185.36843 884.897032,2248.57819 1013.95096,2208.40007 C1143.00488,2168.22196 1138.95845,2163.36731 1283.21853,2208.40007 C1427.47862,2253.43284 1374.16548,2037.71585 1599.48038,2109.93427 C1749.69032,2158.07988 1856.34125,2171.41701 1919.43319,2149.94566 L1919.43319,1559 Z" transform="translate(-779 -1559)"/></svg>